<svg xmlns="http://www.w3.org/2000/svg" xmlns:xlink="http://www.w3.org/1999/xlink" viewBox="0 0 830.14 828.73"><defs><style>.cls-1{fill:none;}.cls-2{clip-path:url(#clip-path);}.cls-3{fill:#fff;}</style><clipPath id="clip-path" transform="translate(0 0)"><rect class="cls-1" width="830.14" height="828.73"/></clipPath></defs><g id="レイヤー_2" data-name="レイヤー 2"><g id="レイヤー_1-2" data-name="レイヤー 1"><g class="cls-2"><path d="M411.74,206.37c0,113.43-91.94,205.38-205.37,205.38S1,319.8,1,206.37,93,1,206.37,1,411.74,93,411.74,206.37" transform="translate(0 0)"/><path d="M206.37,412.74C92.58,412.74,0,320.17,0,206.37S92.58,0,206.37,0A206.43,206.43,0,0,1,397.6,128.63a1,1,0,0,1-.55,1.31,1,1,0,0,1-1.3-.55A203.66,203.66,0,0,0,206.37,2C93.68,2,2,93.68,2,206.37S93.68,410.74,206.37,410.74a203.25,203.25,0,0,0,115.25-35.57,1,1,0,0,1,1.39.26,1,1,0,0,1-.26,1.39,205.23,205.23,0,0,1-116.38,35.92" transform="translate(0 0)"/><path class="cls-3" d="M391.29,206.44c0,102.27-82.91,185.18-185.18,185.18S20.92,308.71,20.92,206.44A185.19,185.19,0,0,1,206.11,21.25c102.27,0,185.18,82.91,185.18,185.19" transform="translate(0 0)"/><path d="M353.47,306.55a1,1,0,0,1-.56-.17,1,1,0,0,1-.27-1.39,176.5,176.5,0,0,0,14-24.85,1,1,0,1,1,1.81.84,177.88,177.88,0,0,1-14.16,25.13,1,1,0,0,1-.83.44" transform="translate(0 0)"/><path class="cls-3" d="M126.92,344c28,18,45.81,21.29,79.59,21.29.07,0-.07-7.2,0-7.2l-.22-155.18Z" transform="translate(0 0)"/><path d="M126.54,344.64c9.44,6,19.32,11.47,30,15.12a117.14,117.14,0,0,0,29.62,5.66c6.79.49,13.6.61,20.4.61a.78.78,0,0,0,.72-.55,4,4,0,0,0,.05-1.33c0-.9,0-1.81,0-2.72s0-1.71,0-2.57c0-.21,0-.41,0-.62,0-.37,0,.41,0-.17s0-.89,0-1.34q0-4.44,0-8.89,0-18-.05-36,0-23.26-.07-46.54l-.06-41.65q0-6.93,0-13.85c0-2.2.12-4.46,0-6.66a2.62,2.62,0,0,1,0-.28.76.76,0,0,0-1.4-.38l-7.92,14.07-19,33.76L155.89,291Q146,308.62,136,326.26l-6.54,11.62c-1,1.82-2.17,3.62-3.1,5.5l-.13.23a.75.75,0,0,0,1.3.76q3.94-7,7.91-14.07,9.5-16.87,19-33.76l22.84-40.61,19.86-35.29L203.72,209l2-3.58a12.1,12.1,0,0,0,1.08-1.92,1.71,1.71,0,0,1,.13-.23l-1.39-.38q0,8.44,0,16.88,0,19.86.05,39.72,0,23.38.07,46.77,0,19,.05,38.05c0,3.64,0,7.27,0,10.9,0,.82,0,1.63,0,2.44v.41c0-.43,0,.36,0,.5,0,.87,0,1.75,0,2.62s0,1.72,0,2.58v1c0,.18-.11.57,0,.29l.72-.55c-11.24,0-22.57-.27-33.68-2.18a105.28,105.28,0,0,1-28.44-9.25,172.76,172.76,0,0,1-17.09-9.76c-.82-.52-1.57.78-.76,1.3" transform="translate(0 0)"/><path d="M216,47.46a9.65,9.65,0,1,1-9.65-9.65A9.66,9.66,0,0,1,216,47.46" transform="translate(0 0)"/><path d="M216,365.28a9.65,9.65,0,1,1-9.65-9.65,9.65,9.65,0,0,1,9.65,9.65" transform="translate(0 0)"/><path d="M47.46,196.72a9.65,9.65,0,1,1-9.65,9.65,9.66,9.66,0,0,1,9.65-9.65" transform="translate(0 0)"/><path d="M365.28,196.72a9.65,9.65,0,1,1-9.65,9.65,9.65,9.65,0,0,1,9.65-9.65" transform="translate(0 0)"/><path d="M365.28,217a10.65,10.65,0,1,1,10.65-10.65A10.66,10.66,0,0,1,365.28,217m0-19.3a8.65,8.65,0,1,0,8.65,8.65,8.66,8.66,0,0,0-8.65-8.65" transform="translate(0 0)"/><path d="M131.37,66.18a5.14,5.14,0,1,1-7-1.87,5.14,5.14,0,0,1,7,1.87" transform="translate(0 0)"/><path d="M66.18,281.38a5.13,5.13,0,1,1-1.88,7,5.14,5.14,0,0,1,1.88-7" transform="translate(0 0)"/><path d="M341.42,122.47a5.14,5.14,0,1,1-1.88,7,5.14,5.14,0,0,1,1.88-7" transform="translate(0 0)"/><path d="M71.32,122.47a5.14,5.14,0,1,1-7,1.88,5.14,5.14,0,0,1,7-1.88" transform="translate(0 0)"/><path class="cls-3" d="M346.56,281.38a5.13,5.13,0,1,1-7,1.88,5.13,5.13,0,0,1,7-1.88" transform="translate(0 0)"/><path d="M122.47,341.42a5.14,5.14,0,1,1,1.88,7,5.14,5.14,0,0,1-1.88-7" transform="translate(0 0)"/><path d="M281.38,66.18a5.13,5.13,0,1,1,1.88,7,5.13,5.13,0,0,1-1.88-7" transform="translate(0 0)"/><path d="M281.38,343.82a5.13,5.13,0,1,1,1.88,7,5.13,5.13,0,0,1-1.88-7" transform="translate(0 0)"/><path d="M233.55,154.92c-15.48,46.62-24.67,58-30.7,56s-6.59-16.59,8.9-63.22c11.07-33.32,30.43-73,40.57-92.89,1.54-3,4.88-1.93,4.31,1.44-3.79,22-12,65.37-23.08,98.7" transform="translate(0 0)"/><path d="M190.59,260.45c0-31.25,6.52-39.94,14.57-39.94s14.57,8.69,14.57,39.94c0,22.33-7.45,50.14-11.69,64.19-.65,2.15-5.11,2.15-5.76,0-4.25-14.05-11.69-41.86-11.69-64.19" transform="translate(0 0)"/><path d="M217.62,186.34a20.47,20.47,0,1,1-27.86,7.84,20.47,20.47,0,0,1,27.86-7.84" transform="translate(0 0)"/><path class="cls-3" d="M207.57,225.66a21.5,21.5,0,1,1,5.85-.81,21.72,21.72,0,0,1-5.85.81m.07-40.93a19.46,19.46,0,1,0,9.49,2.49,19.48,19.48,0,0,0-9.49-2.49" transform="translate(0 0)"/><polygon points="698.93 827.66 650.55 827.66 650.55 232.95 698.45 229.57 698.93 827.66"/><path d="M698.93,828.66H650.55a1,1,0,0,1-1-1V233a1,1,0,0,1,.93-1l47.9-3.38a1,1,0,0,1,1.07,1l.48,598.09a.93.93,0,0,1-.29.7,1,1,0,0,1-.71.3m-47.38-2h46.38l-.48-596-45.9,3.24Z" transform="translate(0 0)"/><path class="cls-3" d="M828.66,827.66H698.93c-.26,0-.48-.31-.48-.68V230.27c0-.38.23-.69.5-.67l129.73,6.84c.26,0,.46.32.46.68V827c0,.37-.21.68-.48.68" transform="translate(0 0)"/><path d="M828.66,828.66H698.94a1.57,1.57,0,0,1-1.49-1.68V230.27A1.76,1.76,0,0,1,698,229a1.36,1.36,0,0,1,1-.39l129.72,6.84a1.58,1.58,0,0,1,1.41,1.68V827a1.57,1.57,0,0,1-1.48,1.68m-129.21-2H828.14V237.42l-128.69-6.8Z" transform="translate(0 0)"/><path d="M786.08,516.89a1,1,0,0,1-1-1V274.38a1,1,0,0,1,2,0V515.89a1,1,0,0,1-1,1" transform="translate(0 0)"/><path d="M745,430.83a1,1,0,0,1-1-1V358.58a1,1,0,1,1,2,0v71.25a1,1,0,0,1-1,1" transform="translate(0 0)"/><path d="M745,675.13a1,1,0,0,1-1-1V551.19a1,1,0,0,1,2,0V674.13a1,1,0,0,1-1,1" transform="translate(0 0)"/><polygon points="535.79 827.73 487.64 827.73 487.64 383.74 535.53 368.61 535.79 827.73"/><path d="M535.79,828.73H487.64a1,1,0,0,1-1-1v-444a1,1,0,0,1,.7-.95l47.89-15.13a1,1,0,0,1,.89.15,1,1,0,0,1,.41.8l.26,459.12a1,1,0,0,1-.29.7,1,1,0,0,1-.71.3m-47.15-2h46.15L534.53,370l-45.89,14.5Z" transform="translate(0 0)"/><path class="cls-3" d="M665.74,827.73H536a.51.51,0,0,1-.49-.52V369.15a.51.51,0,0,1,.51-.52l129.72,5.26a.5.5,0,0,1,.46.52v452.8a.5.5,0,0,1-.48.52" transform="translate(0 0)"/><path d="M665.74,828.73H536a1.51,1.51,0,0,1-1.49-1.52V369.15a1.5,1.5,0,0,1,.47-1.1,1.4,1.4,0,0,1,1.07-.42l129.73,5.26a1.49,1.49,0,0,1,1.42,1.52v452.8a1.5,1.5,0,0,1-1.48,1.52m-129.21-2H665.22V374.87l-128.69-5.22Z" transform="translate(0 0)"/><path d="M600.91,608.45a1,1,0,0,1-1-1V404.08a1,1,0,0,1,2,0V607.45a1,1,0,0,1-1,1" transform="translate(0 0)"/><path d="M566.66,471.44a1,1,0,0,1-1-1V435.78a1,1,0,0,1,2,0v34.66a1,1,0,0,1-1,1" transform="translate(0 0)"/><path d="M566.66,701.44a1,1,0,0,1-1-1V527.78a1,1,0,0,1,2,0V700.44a1,1,0,0,1-1,1" transform="translate(0 0)"/><path d="M635.16,539.79a1,1,0,0,1-1-1V504.12a1,1,0,0,1,2,0v34.67a1,1,0,0,1-1,1" transform="translate(0 0)"/><polygon points="373.8 827.73 325.9 827.73 325.9 572.55 373.8 562.05 373.8 827.73"/><path d="M373.8,828.73H325.9a1,1,0,0,1-1-1V572.55a1,1,0,0,1,.79-1l47.89-10.5a1,1,0,0,1,.85.2,1,1,0,0,1,.37.78V827.73a1,1,0,0,1-1,1m-46.9-2h45.9V563.29l-45.9,10.06Z" transform="translate(0 0)"/><path class="cls-3" d="M504.49,827.73H373.8V562.6a.54.54,0,0,1,.56-.54l130.13,4.36Z" transform="translate(0 0)"/><path d="M504.49,828.73H373.8a1,1,0,0,1-1-1V562.6a1.54,1.54,0,0,1,1.59-1.53l130.14,4.36a1,1,0,0,1,1,1V827.73a1,1,0,0,1-1,1m-129.69-2H503.49V567.39L374.8,563.08Z" transform="translate(0 0)"/><path d="M408.54,753.08a1,1,0,0,1-1-1V593.79a1,1,0,0,1,2,0V752.08a1,1,0,0,1-1,1" transform="translate(0 0)"/><path d="M477,771.59a1,1,0,0,1-1-1V612.31a1,1,0,0,1,2,0V770.59a1,1,0,0,1-1,1" transform="translate(0 0)"/><path d="M442.79,709.57a1,1,0,0,1-1-1V676.18a1,1,0,0,1,2,0v32.39a1,1,0,0,1-1,1" transform="translate(0 0)"/><polygon points="212.73 827.73 164.38 827.73 164.38 701.17 212.28 691.72 212.73 827.73"/><path d="M212.73,828.73H164.38a1,1,0,0,1-1-1V701.17a1,1,0,0,1,.81-1l47.89-9.45a1,1,0,0,1,.83.21,1,1,0,0,1,.37.77l.45,136a1,1,0,0,1-1,1m-47.35-2h46.35l-.45-133.79-45.9,9Z" transform="translate(0 0)"/><path class="cls-3" d="M342.51,827.73H212.73a.46.46,0,0,1-.45-.46V692.19a.45.45,0,0,1,.46-.46l129.78,2.12a.45.45,0,0,1,.45.45v133a.47.47,0,0,1-.46.46" transform="translate(0 0)"/><path d="M342.51,828.73H212.73a1.46,1.46,0,0,1-1.45-1.46V692.19a1.45,1.45,0,0,1,1.47-1.46l129.79,2.12A1.45,1.45,0,0,1,344,694.3v133a1.46,1.46,0,0,1-1.46,1.46m-129.23-2H342V694.84l-128.69-2.1Z" transform="translate(0 0)"/><path d="M303.47,796.58a1,1,0,0,1-1-1V715.05a1,1,0,0,1,2,0v80.53a1,1,0,0,1-1,1" transform="translate(0 0)"/><path d="M262.43,767.89a1,1,0,0,1-1-1V743.13a1,1,0,0,1,2,0v23.76a1,1,0,0,1-1,1" transform="translate(0 0)"/><polygon points="51.59 827.73 3.24 827.73 3.24 761.45 51.14 753.37 51.59 827.73"/><path d="M51.59,828.73H3.24a1,1,0,0,1-1-1V761.45a1,1,0,0,1,.84-1L51,752.38a1,1,0,0,1,1.17,1l.45,74.36a1,1,0,0,1-.29.71,1,1,0,0,1-.71.3m-47.35-2H50.59l-.44-72.18L4.24,762.29Z" transform="translate(0 0)"/><path class="cls-3" d="M181.38,827.73H51.59c-.25,0-.45-.12-.45-.25V753.62c0-.14.21-.25.46-.25l129.78,1.16c.25,0,.45.11.45.25v72.7c0,.13-.2.25-.45.25" transform="translate(0 0)"/><path d="M181.38,828.73H51.59a1.33,1.33,0,0,1-1.45-1.25V753.62a1.14,1.14,0,0,1,.35-.83,1.52,1.52,0,0,1,1.12-.42l129.78,1.16a1.33,1.33,0,0,1,1.44,1.25v72.7a1.33,1.33,0,0,1-1.45,1.25m-129.24-2H180.83V755.52L52.14,754.37Z" transform="translate(0 0)"/><path d="M142.33,811.15a1,1,0,0,1-1-1v-44a1,1,0,0,1,2,0v44a1,1,0,0,1-1,1" transform="translate(0 0)"/><path d="M101.3,795.46a1,1,0,0,1-1-1v-13a1,1,0,0,1,2,0v13a1,1,0,0,1-1,1" transform="translate(0 0)"/><path class="cls-3" d="M468.57,492.84c-2.77-2-23.82-42.07-23.82-42.07l-23.63,24L459.88,508Z" transform="translate(0 0)"/><path d="M459.88,509a1,1,0,0,1-.65-.24l-38.76-33.31a1,1,0,0,1-.34-.72,1,1,0,0,1,.28-.74L444,450.07a1,1,0,0,1,.85-.29,1,1,0,0,1,.74.53c8.06,15.35,21.57,40.25,23.53,41.72a1,1,0,0,1,.28,1.31l-8.69,15.19a1,1,0,0,1-.7.49h-.17m-37.29-34.37,37,31.82,7.73-13.5c-4-4.94-18.49-32.26-22.84-40.53Z" transform="translate(0 0)"/><polygon class="cls-3" points="358.35 515.92 331.1 551.82 313.57 547.93 337.17 503.52 358.35 515.92"/><path d="M331.1,552.82a.83.83,0,0,1-.22,0l-17.52-3.88a1,1,0,0,1-.7-.56,1,1,0,0,1,0-.89l23.59-44.41a1,1,0,0,1,.61-.49,1,1,0,0,1,.78.1l21.18,12.4a1,1,0,0,1,.29,1.47L331.9,552.42a1,1,0,0,1-.8.4m-16-5.58,15.62,3.46,26.18-34.48-19.31-11.31Z" transform="translate(0 0)"/><path d="M525,295.58s-144.91-16.47-188.49,20.48c-49.19,41.71,96.85,175,96.85,175l25.05-25-51.89-91.59,134.31-38.14Z" transform="translate(0 0)"/><path d="M604.92,369.6c-21.1,6.69-58.86,15.35-111.64,14.63-15-.2-30.74,9.26-37.56,22.62-15.63,30.66-46.52,77-101.63,121.42l-27.38-15.14L393.9,361.89a55.8,55.8,0,0,1,31.79-29.74l133.16-48.83s41.29-11.54,61.53,25.32c3.61,6.58,10.33-5.19,11.93.12,5.48,18.21-9.26,55.08-27.39,60.84" transform="translate(0 0)"/><path class="cls-3" d="M354.08,529.27a1,1,0,0,1-.48-.12L326.23,514a1,1,0,0,1-.43-1.28L393,361.48a57.07,57.07,0,0,1,32.36-30.27L558.5,282.38c.5-.14,42.37-11.35,62.76,25.78a2.65,2.65,0,0,0,1.56,1.48c1.2.31,2.86-.74,4.33-1.68s3.13-2,4.5-1.48a2.77,2.77,0,0,1,1.61,2c5.55,18.44-9.21,56.1-28,62.07l-.3-.95.3.95c-22.34,7.09-59.9,15.4-112,14.68-14.61-.17-30,9.09-36.65,22.07-12.8,25.12-43.07,74.33-101.9,121.75a1,1,0,0,1-.63.22M328,512.7l26,14.37c58.19-47.05,88.16-95.78,100.85-120.68,6.95-13.63,23.12-23.32,38.46-23.16,51.79.72,89.13-7.54,111.33-14.59,17.6-5.58,31.94-42.28,26.73-59.59-.14-.45-.3-.66-.39-.69-.44-.17-1.83.71-2.74,1.29-1.81,1.15-3.86,2.46-5.9,1.93a4.63,4.63,0,0,1-2.82-2.46c-19.63-35.75-60-24.95-60.38-24.84L426,333.09a55.08,55.08,0,0,0-31.23,29.21Z" transform="translate(0 0)"/><path class="cls-3" d="M343.61,542c1.25,4.48,3.88,17.09,5,24.68a9.5,9.5,0,0,1-6.93,10.51c-13,3.52-44.14,3.37-70.05,4.51-1.77.08-5-.79-6.49-5.08-4.93-14.59,22.3-19.1,49.21-33.93a1.57,1.57,0,0,1,1.67.09c.31.22.7.49,1.17.79,4.68,3,12.46,3,17.22.12l5.37-3.23a2.6,2.6,0,0,1,3.84,1.54" transform="translate(0 0)"/><path d="M271.4,582.75c-2.49,0-5.77-1.5-7.22-5.77-3.73-11,8.78-16.45,26.1-24,7.25-3.14,15.46-6.7,23.58-11.17a2.54,2.54,0,0,1,2.73.15c.3.21.68.47,1.12.75,4.31,2.74,11.72,2.79,16.17.11l5.37-3.23a3.6,3.6,0,0,1,5.32,2.13h0c1.3,4.64,3.92,17.25,5,24.8a10.49,10.49,0,0,1-7.65,11.62c-9.8,2.65-29.2,3.23-49.74,3.84-6.84.21-13.9.42-20.53.71h-.27m43.71-39.22a.6.6,0,0,0-.28.08c-8.21,4.52-16.47,8.1-23.76,11.25-16.33,7.08-28.14,12.19-25,21.47,1.48,4.37,4.85,4.45,5.51,4.41,6.64-.29,13.72-.5,20.56-.71,20.42-.6,39.7-1.18,49.27-3.77a8.49,8.49,0,0,0,6.2-9.4c-1.06-7.28-3.69-20-5-24.55a1.63,1.63,0,0,0-1-1.07,1.6,1.6,0,0,0-1.41.12l-5.37,3.23c-5.11,3.07-13.31,3-18.27-.14-.48-.31-.89-.59-1.21-.82a.58.58,0,0,0-.32-.1" transform="translate(0 0)"/><path class="cls-3" d="M349.38,570.15c0,.14,0,.23.05.27.69,4.76-3.83,7.69-8.15,9.71-12.83,6-64.63,2.57-66.63,2.44h-.11c-.64,0-7.22,0-9.12-4.08a6.89,6.89,0,0,1-.46-1.89,9.27,9.27,0,0,1,.17-3.28,1.57,1.57,0,0,1,1.92-1.21c9.62,2.46,32.07,4.31,54.5,1.8,9.94-1.11,15.33-2.09,24.85-8a1.58,1.58,0,0,1,2.36,1.07l.62,3.13" transform="translate(0 0)"/><path d="M307.14,584.66c-16,0-31.38-1-32.56-1.09-.83,0-7.91,0-10.06-4.66a8,8,0,0,1-.56-2.18,10.42,10.42,0,0,1,.19-3.63,2.62,2.62,0,0,1,1.18-1.66,2.53,2.53,0,0,1,2-.3c10.33,2.64,32.82,4.17,54.14,1.78,10.2-1.14,15.27-2.17,24.44-7.82a2.51,2.51,0,0,1,2.35-.16,2.58,2.58,0,0,1,1.51,1.89l.62,3.13h0l.06.32c.81,5.59-4.59,8.82-8.72,10.76-6.07,2.85-20.58,3.62-34.56,3.62m-32.57-3.09h.15c2.18.15,53.56,3.56,66.13-2.34,5.73-2.69,8.07-5.36,7.59-8.67l-.66-3.35a.59.59,0,0,0-.35-.44.55.55,0,0,0-.51,0c-9.47,5.84-15,7-25.26,8.11-21.55,2.41-44.35.86-54.86-1.83a.55.55,0,0,0-.42.06.65.65,0,0,0-.28.39,8.38,8.38,0,0,0-.15,2.93,5.91,5.91,0,0,0,.38,1.61c1.65,3.55,7.93,3.51,8.2,3.5Z" transform="translate(0 0)"/><path d="M312.5,555.52a1,1,0,0,1-.61-.21l-7.85-6a1,1,0,0,1,1.21-1.59l7.86,6a1,1,0,0,1,.18,1.4,1,1,0,0,1-.79.4" transform="translate(0 0)"/><path d="M302.06,559.8a1,1,0,0,1-.6-.2l-6.88-5.16a1,1,0,0,1,1.2-1.6l6.88,5.16a1,1,0,0,1,.2,1.4,1,1,0,0,1-.8.4" transform="translate(0 0)"/><path class="cls-3" d="M448.18,497.49,463.55,484l23.83,14.74a8.91,8.91,0,0,1,3.31,10.94,87.76,87.76,0,0,1-11.28,18.44c-9.94,12.21-15,32-29.47,33.29s-14.07.45-17.15-3.1,2.64-18.21,6.6-28c3.23-8,8.79-32.85,8.79-32.85" transform="translate(0 0)"/><path d="M440.67,563c-5,0-6.1-1-8-3.33L432,559c-3-3.47.39-14.1,6.42-29,3.17-7.81,8.69-32.44,8.75-32.69a1,1,0,0,1,.31-.53l15.37-13.49a1,1,0,0,1,1.18-.1l23.84,14.74a9.93,9.93,0,0,1,3.68,12.21,88.69,88.69,0,0,1-11.41,18.65,98.2,98.2,0,0,0-8.3,12.87c-5.6,9.75-11.4,19.83-21.85,20.79-4.16.38-7.14.58-9.36.58m8.42-65c-.69,3.05-5.71,25.12-8.77,32.68-2.63,6.48-9.6,23.68-6.77,26.94l.61.72c2.25,2.68,2.72,3.24,15.69,2,9.42-.87,14.7-10.06,20.3-19.8a99,99,0,0,1,8.48-13.13,86.74,86.74,0,0,0,11.15-18.22,7.91,7.91,0,0,0-2.93-9.69l-23.2-14.34Z" transform="translate(0 0)"/><path d="M453.9,519.46H443a1,1,0,0,1,0-2H453.9a1,1,0,0,1,0,2" transform="translate(0 0)"/><path d="M452.17,528.7H441.28a1,1,0,0,1,0-2h10.89a1,1,0,1,1,0,2" transform="translate(0 0)"/><path class="cls-3" d="M435.43,560.75s12.53.66,19.79-8.66,32-53.6,32-53.6l4.71,3a5.48,5.48,0,0,1,1.89,7.15c-5.93,11.38-22.2,41.1-34.64,50.45-15.5,11.66-23.75,1.67-23.75,1.67" transform="translate(0 0)"/><path d="M445.1,565.7a14.17,14.17,0,0,1-10.44-4.32,1,1,0,0,1,.82-1.63c.12,0,12.11.51,18.95-8.27,7.13-9.16,31.66-53,31.91-53.48a1,1,0,0,1,1.41-.36l4.71,3a6.5,6.5,0,0,1,2.25,8.46c-6.34,12.14-22.43,41.38-34.93,50.78-5.87,4.41-10.79,5.82-14.68,5.82m-7.07-4c3.07,2.07,10,4.56,20.55-3.4,12.17-9.15,28.08-38.09,34.36-50.11a4.49,4.49,0,0,0-1.55-5.84l-3.82-2.43c-3.68,6.57-24.84,44.16-31.56,52.8-5.5,7.08-13.77,8.65-18,9" transform="translate(0 0)"/><path class="cls-3" d="M339.14,85l25.62,13.83A28.52,28.52,0,0,1,377.09,112c7.77,16.78,27.33,52.9,52.76,55.69,27.63,3,55-28.26,63.44-38.85a2.65,2.65,0,0,1,4.48.52l19.55,41.83a2.65,2.65,0,0,1-.23,2.65c-5.48,7.76-36.4,48-82.84,40.71-46.27-7.27-62.2-70.64-64.89-83.07a2.65,2.65,0,0,0-2.41-2.09,16.29,16.29,0,0,1-14.76-10.67c-2.71-7-2.76-12-2.53-14.42a2.62,2.62,0,0,0-1.26-2.49c-3.42-2.07-11.58-7.6-13.11-13.85A2.66,2.66,0,0,1,339.14,85" transform="translate(0 0)"/><path d="M445.44,216.4a73.11,73.11,0,0,1-11.34-.9c-46.86-7.36-63-71.14-65.72-83.85a1.64,1.64,0,0,0-1.48-1.3A17.35,17.35,0,0,1,351.25,119c-2.79-7.22-2.82-12.41-2.59-14.87a1.61,1.61,0,0,0-.78-1.54c-3.54-2.15-11.95-7.86-13.57-14.47a3.58,3.58,0,0,1,1.31-3.72,3.63,3.63,0,0,1,4-.34h0l25.63,13.83A29.79,29.79,0,0,1,378,111.54c7.25,15.65,26.82,52.36,52,55.12a34.51,34.51,0,0,0,3.66.19c26.05,0,51.46-29.33,58.88-38.68a3.67,3.67,0,0,1,6.18.73l19.55,41.83a3.65,3.65,0,0,1-.33,3.65c-5.28,7.48-31.92,42-72.46,42M337.87,85.66a1.65,1.65,0,0,0-1,.36,1.56,1.56,0,0,0-.59,1.66c1.44,5.89,9.33,11.22,12.66,13.24a3.57,3.57,0,0,1,1.73,3.44c-.21,2.28-.18,7.12,2.47,14a15.4,15.4,0,0,0,13.89,10,3.64,3.64,0,0,1,3.32,2.88c2.71,12.48,18.51,75.13,64.08,82.3s76.21-32.32,81.86-40.31a1.64,1.64,0,0,0,.14-1.64l-19.55-41.83a1.64,1.64,0,0,0-2.79-.33c-7.57,9.53-33.52,39.43-60.47,39.43a33.29,33.29,0,0,1-3.86-.21c-26.15-2.86-46.16-40.3-53.56-56.26a27.75,27.75,0,0,0-11.89-12.69L338.66,85.86a1.72,1.72,0,0,0-.79-.2" transform="translate(0 0)"/><path d="M369.85,123.89a7.8,7.8,0,0,1-7.49-6.39c-.73-3.14-1.33-3.69-3.82-6-.5-.46-1.06-1-1.7-1.6a9.91,9.91,0,0,1-2.9-5.67,3.28,3.28,0,0,1,1.41-3.37,3.37,3.37,0,0,1,3.74-.08l9,5.64a1,1,0,1,1-1.06,1.69l-9-5.63a1.39,1.39,0,0,0-1.55,0,1.32,1.32,0,0,0-.58,1.36,8,8,0,0,0,2.33,4.59c.63.61,1.18,1.12,1.67,1.57,2.64,2.47,3.53,3.3,4.41,7a5.81,5.81,0,0,0,5.66,4.84,1,1,0,0,1,1,1,1,1,0,0,1-1,1h-.19" transform="translate(0 0)"/><path class="cls-3" d="M696.24,192.2s-4.78-36.4-11.68-53.51c-15.32-38-76.35-36-76.35-36l0,.51c-13.35-2.62-25.21-2.43-78.28-.51a21.52,21.52,0,0,0-4,.56c-28,3.2-59.81,43.24-59.81,43.24l40.1,54.72c-.29,23.49-5.53,49.84-21.9,73.36a118.13,118.13,0,0,1-22.71,24.29,76.36,76.36,0,0,0,26.15,14c19.52,5.79,29.34-.47,45.07,0,41.62,1.24,56.88,47.59,83.76,41.77,7.18-1.56,16.69-7.16,25.61-25.93a288.64,288.64,0,0,0,11.21-130.48Z" transform="translate(0 0)"/><path d="M612,356.13c-11,0-20.2-8.18-30.6-17.48-12.69-11.32-27.08-24.16-48.49-24.8a85.65,85.65,0,0,0-15.26,1.22c-8.54,1.23-17.37,2.5-30.07-1.26A77.06,77.06,0,0,1,461,299.64a1,1,0,0,1-.37-.77,1,1,0,0,1,.37-.78A117.32,117.32,0,0,0,483.56,274c14-20.12,21.31-44.5,21.72-72.47l-39.9-54.45a1,1,0,0,1,0-1.22c1.31-1.64,32.33-40.34,60.42-43.59a20.58,20.58,0,0,1,4.12-.57c52.22-1.9,64.6-2.09,77.52.33a.94.94,0,0,1,.71-.33c.62,0,61.91-1.59,77.32,36.6,6.87,17,11.69,53.39,11.74,53.76a1,1,0,0,1-.85,1.12l-41.78,5.88A289.62,289.62,0,0,1,643.21,329a.33.33,0,0,1-.05.12c-7.3,15.38-16.15,24.29-26.3,26.48a22.78,22.78,0,0,1-4.91.54m-80.76-44.31,1.73,0c22.14.66,36.81,13.76,49.76,25.31,11.5,10.28,21.44,19.15,33.76,16.48,9.5-2.06,17.87-10.58,24.89-25.32a287.54,287.54,0,0,0,11.15-130,1,1,0,0,1,.19-.75,1,1,0,0,1,.66-.39l41.78-5.87c-.82-5.92-5.33-37-11.48-52.29-13.87-34.4-66.91-35.4-74.49-35.37a1,1,0,0,1-1.07.5c-13.1-2.57-24.7-2.42-78.06-.49a20.46,20.46,0,0,0-3.79.54l-.11,0c-25.46,2.9-54.59,37.31-58.66,42.27l39.64,54.1a1,1,0,0,1,.19.6c-.35,28.52-7.78,53.39-22.08,73.92a119,119,0,0,1-21.94,23.71,74.74,74.74,0,0,0,24.84,13c12.28,3.64,20.5,2.46,29.21,1.2a95.21,95.21,0,0,1,13.88-1.27" transform="translate(0 0)"/><path class="cls-3" d="M642.41,192.2s10.71,35.94,7.19,50.3c-5,20.2-70.62,34-75.14,35s-25.52-3.58-34.41,4.47c-5.33,4.83-9.08,4.22-15.58,5.19a3.89,3.89,0,0,0-3.11,4.5c.32,1.81,2.08,4.44,6.76,4.44,5.7,0,6.31-.54,10.81-1.61a1.42,1.42,0,0,1,1.44,2.32c-2.3,2.39-6.63,7.87-7.41,10.28-3.61,11.12.91,22.52,25.86,3.47,10.31-7.88,13-13.47,18.56-14.93s76.84-10.13,89.78-16c18.61-8.44,25.63-62.73,21.76-89.86-1.63-11.39-46.51,2.42-46.51,2.42" transform="translate(0 0)"/><path d="M538.21,321.77a7.26,7.26,0,0,1-4.33-1.24c-3.18-2.25-3.9-7.51-1.87-13.74.87-2.69,5.43-8.37,7.64-10.66a.35.35,0,0,0,.05-.44.47.47,0,0,0-.54-.22c-.9.21-1.64.41-2.3.58a27.16,27.16,0,0,1-8.74,1.06c-5,0-7.31-2.84-7.74-5.27a5,5,0,0,1,.87-3.75,4.62,4.62,0,0,1,3.07-1.91c1.28-.19,2.44-.32,3.54-.44,4.49-.5,7.46-.83,11.52-4.5,6.75-6.11,19.68-5.33,28.24-4.81a34.93,34.93,0,0,0,6.63.1l.22,0c11.59-2.48,69.64-15.83,74.16-34.22,3.41-13.93-7.07-49.42-7.18-49.78a1,1,0,0,1,.67-1.24c1.47-.45,36.16-11,45.37-5.19a5,5,0,0,1,2.42,3.58c3.81,26.66-2.84,82.08-22.33,90.92-9.34,4.23-48.43,9.88-71.79,13.25-9.27,1.34-16.6,2.39-18.16,2.8-3,.78-5.07,2.85-8.27,6a100.57,100.57,0,0,1-9.93,8.77c-10.47,8-17.07,10.41-21.22,10.41m1.08-28.32a2.47,2.47,0,0,1,2.15,1.24,2.33,2.33,0,0,1-.35,2.82c-2.41,2.51-6.49,7.77-7.18,9.9-1.72,5.28-1.27,9.79,1.12,11.49,2.18,1.54,8.08,2.41,23.18-9.13a96.28,96.28,0,0,0,9.75-8.61c3.31-3.24,5.7-5.58,9.16-6.49,1.67-.44,8.68-1.45,18.39-2.85,23.25-3.36,62.16-9,71.24-13.09,17.25-7.82,25.28-60.11,21.18-88.81a3,3,0,0,0-1.51-2.18c-6.79-4.3-32.31,2-42.77,5.13,1.71,5.93,10.18,36.56,6.92,49.87-4.68,19.05-59.11,32.14-75.68,35.7l-.22.05a34,34,0,0,1-7.17-.06c-8.23-.5-20.65-1.26-26.78,4.29-4.54,4.11-8.11,4.51-12.64,5-1.07.12-2.22.24-3.46.43a2.63,2.63,0,0,0-1.75,1.1,3,3,0,0,0-.53,2.23c.11.61.89,3.62,5.78,3.62a25.27,25.27,0,0,0,8.24-1c.67-.17,1.42-.37,2.33-.59a3.16,3.16,0,0,1,.6-.07" transform="translate(0 0)"/><path class="cls-3" d="M558.38,91l2.48-15.39c-1-22.15,32.34-27,29.35-27.29l-1.78,42a10.44,10.44,0,0,0,7.6,10.5c5.27,1.49,11.54,3.26,13.45,3.76-4.52-.21-35.72,13.36-71.11-1.47L551,99.41A10.45,10.45,0,0,0,558.38,91" transform="translate(0 0)"/><path d="M573.41,111.11a91,91,0,0,1-35.43-7,1,1,0,0,1-.61-1,1,1,0,0,1,.72-.91l12.67-3.77a9.52,9.52,0,0,0,6.64-7.57l2.45-15.28c-.47-12.46,9.1-21.71,28.47-27.51l1.09-.33.14-.15a1,1,0,0,1,.74-.25,1.07,1.07,0,0,1,1.1,1,.9.9,0,0,1-.21.79l-1.75,41.33a9.41,9.41,0,0,0,6.87,9.5c5.05,1.43,11.48,3.24,13.43,3.76a1,1,0,0,1-.3,2,28.58,28.58,0,0,0-5.13,1.08,122,122,0,0,1-30.89,4.38m-32-7.79c27.21,10.38,51.74,4.17,62.4,1.48l1.26-.32-9.31-2.62a11.42,11.42,0,0,1-8.33-11.52l1.71-40.41-.25.08c-18.43,5.51-27.52,14.13-27,25.6a.65.65,0,0,1,0,.2L559.37,91.2a11.52,11.52,0,0,1-8,9.17Z" transform="translate(0 0)"/><path d="M540.21,5.09C548.88,4,538.61,13.72,570.1,2c12.54-4.67,7.17,10.78,10.43,9.57,12-4.44,11.61-4.31,17.73-3.16,4,.76,7.18,7.9,6.84,13.43-.44,7.3-6.27,9.6-10.4,25.26-2.91,11-1.52,17.45-5.69,19.32s-7.87-3.7-12.64-2c-6.18,2.23-4.12,13.07-9.92,18-3.66,3.14-12.57,5.12-27.53-.87a5.47,5.47,0,0,1-3.33-6.12c.65-3.29,1.49-7.45,2.62-11.36,5.4-18.61,11.54-23.17,8.85-27.7C543,29.49,529.66,34.6,527,28.85c-2.8-6,1.38-22.21,13.24-23.76" transform="translate(0 0)"/><path class="cls-3" d="M572.92,34.1l-2.14,4.84a54.34,54.34,0,0,0-2.55,7c-1.29,4.5-3.56,12.21-5.17,16.43-2.35,6.2-22,.26-22,.26L539.62,59l-2.29-.74a2.7,2.7,0,0,1-1.17-.73,2.59,2.59,0,0,1-.33-3c2.95-5.15,9.06-16.67,10.81-26.75a28,28,0,0,1,26.28,6.34" transform="translate(0 0)"/><path d="M555.86,66.19c-6.21,0-13.8-2.2-15.1-2.6a1,1,0,0,1-.64-.59l-1.25-3.18-1.84-.6a3.64,3.64,0,0,1-1.61-1A3.58,3.58,0,0,1,535,54c2.63-4.59,8.94-16.35,10.69-26.43a1,1,0,0,1,.67-.78,28.83,28.83,0,0,1,27.27,6.55,1,1,0,0,1,.25,1.15l-2.15,4.83a53.94,53.94,0,0,0-2.5,6.89c-1.24,4.32-3.56,12.21-5.19,16.5-1,2.62-4.31,3.46-8.14,3.46M541.8,61.82c7.3,2.13,18.89,4,20.33.2,1.6-4.22,3.91-12.05,5.14-16.34a56.47,56.47,0,0,1,2.59-7.15l1.85-4.16a27.38,27.38,0,0,0-24.2-5.82C545.64,38.41,540,49.32,536.69,55a1.59,1.59,0,0,0,.22,1.86,1.64,1.64,0,0,0,.74.45l2.28.74a1,1,0,0,1,.63.59Z" transform="translate(0 0)"/><path class="cls-3" d="M570.62,50.6s5.14-11.63,9.91-8.14-1.21,16.15-9.91,8.14" transform="translate(0 0)"/><path class="cls-3" d="M330.67,313.75H526.42a8,8,0,0,0,8-8v-3.41H322.71v3.41a8,8,0,0,0,8,8" transform="translate(0 0)"/><path d="M526.42,314.75H330.67a9,9,0,0,1-9-9v-3.41a1,1,0,0,1,1-1H534.38a1,1,0,0,1,1,1v3.41a9,9,0,0,1-9,9M323.71,303.38v2.41a7,7,0,0,0,7,7H526.42a7,7,0,0,0,7-7v-2.41Z" transform="translate(0 0)"/><path class="cls-3" d="M322.71,302.59H443.83L405.34,189.31a12.65,12.65,0,0,0-10.62-5.69H292.33a6.36,6.36,0,0,0-6.12,8.49c.61,1.58,1.26,3.14,1.78,4.75Z" transform="translate(0 0)"/><path d="M443.83,303.59H322.71a1,1,0,0,1-.95-.69L287,197.18c-.37-1.13-.81-2.27-1.24-3.37-.17-.45-.35-.89-.52-1.35a7.16,7.16,0,0,1,.83-6.61,7.44,7.44,0,0,1,6.22-3.23H394.72a13.58,13.58,0,0,1,11.46,6.15.91.91,0,0,1,.11.22l38.48,113.28a1,1,0,0,1-.13.9,1,1,0,0,1-.81.42m-120.4-2h119l-38-111.83a11.61,11.61,0,0,0-9.72-5.14H292.33a5.45,5.45,0,0,0-4.57,2.36,5.16,5.16,0,0,0-.61,4.77l.51,1.33c.44,1.13.9,2.29,1.28,3.47Z" transform="translate(0 0)"/><path class="cls-3" d="M367.66,241.58c1.44,4.78-.77,9.69-4.93,10.94s-8.71-1.61-10.15-6.39.76-9.69,4.92-10.95,8.71,1.61,10.16,6.4" transform="translate(0 0)"/><path d="M360.71,253.82a8.68,8.68,0,0,1-4.61-1.38,10.76,10.76,0,0,1-4.48-6c-1.6-5.31.91-10.78,5.6-12.19a8.33,8.33,0,0,1,6.91,1,10.67,10.67,0,0,1,4.48,6c1.6,5.31-.91,10.78-5.59,12.19a7.93,7.93,0,0,1-2.31.34m-1.2-17.94a6,6,0,0,0-1.72.26c-3.63,1.09-5.54,5.44-4.25,9.7a8.65,8.65,0,0,0,3.63,4.9,6.29,6.29,0,0,0,5.27.82c3.63-1.09,5.54-5.44,4.26-9.7a8.74,8.74,0,0,0-3.63-4.9,6.69,6.69,0,0,0-3.56-1.08" transform="translate(0 0)"/><path d="M18.38,434.91l6.33,5.23a3.42,3.42,0,0,1,1.15,3.47c-.35,1.35-.65,2.7-.88,4.05a3.4,3.4,0,0,1-2.47,2.69l-7.9,2.17A3.41,3.41,0,0,0,12.09,456l.34,6.52a3.46,3.46,0,0,0,2.88,3.21l8.11,1.41a3.46,3.46,0,0,1,2.75,2.45c.37,1.32.79,2.62,1.27,3.9a3.39,3.39,0,0,1-.77,3.58l-5.75,5.82a3.42,3.42,0,0,0-.42,4.26l3.59,5.49a3.48,3.48,0,0,0,4.1,1.37l7.7-2.8a3.48,3.48,0,0,1,3.61.77c1,.95,2,1.87,3.08,2.75a3.41,3.41,0,0,1,1.14,3.49l-2,7.89A3.44,3.44,0,0,0,43.48,510l5.86,3a3.47,3.47,0,0,0,4.23-.85l5.26-6.25a3.45,3.45,0,0,1,3.49-1.13c1.36.35,2.72.65,4.09.89a3.44,3.44,0,0,1,2.71,2.45L71.35,516a3.46,3.46,0,0,0,3.51,2.51l6.57-.32a3.41,3.41,0,0,0,3.23-2.83l1.39-8.05a3.4,3.4,0,0,1,2.44-2.7c1.34-.37,2.67-.79,4-1.27a3.48,3.48,0,0,1,3.59.79l5.89,5.72a3.48,3.48,0,0,0,4.3.44l5.52-3.54a3.39,3.39,0,0,0,1.36-4.06L110.27,495a3.43,3.43,0,0,1,.76-3.58c1-1,1.88-2,2.77-3a3.45,3.45,0,0,1,3.51-1.12l8,2a3.46,3.46,0,0,0,3.94-1.75l3-5.81a3.4,3.4,0,0,0-.87-4.2L125,472.32a3.39,3.39,0,0,1-1.14-3.47q.52-2,.87-4.05a3.41,3.41,0,0,1,2.47-2.68l7.91-2.18a3.42,3.42,0,0,0,2.51-3.48l-.34-6.52a3.46,3.46,0,0,0-2.87-3.21l-8.12-1.41a3.45,3.45,0,0,1-2.74-2.43c-.37-1.33-.8-2.65-1.29-3.94a3.4,3.4,0,0,1,.78-3.56l5.75-5.82a3.4,3.4,0,0,0,.42-4.26l-3.58-5.49a3.49,3.49,0,0,0-4.1-1.37l-7.71,2.8a3.46,3.46,0,0,1-3.6-.77c-1-1-2-1.87-3.09-2.75a3.41,3.41,0,0,1-1.14-3.49l2-7.89a3.43,3.43,0,0,0-1.78-3.91l-5.87-3a3.47,3.47,0,0,0-4.23.85l-5.25,6.25a3.46,3.46,0,0,1-3.5,1.13c-1.35-.35-2.72-.65-4.08-.88a3.46,3.46,0,0,1-2.72-2.46l-2.22-7.85A3.47,3.47,0,0,0,74.85,394l-6.57.32a3.41,3.41,0,0,0-3.23,2.83l-1.39,8.05a3.4,3.4,0,0,1-2.46,2.71c-1.33.36-2.64.78-3.93,1.25a3.47,3.47,0,0,1-3.6-.78l-5.9-5.72a3.48,3.48,0,0,0-4.3-.44L38,405.74a3.4,3.4,0,0,0-1.36,4.06l2.85,7.65a3.41,3.41,0,0,1-.76,3.58c-1,1-1.88,2-2.76,3a3.45,3.45,0,0,1-3.51,1.12l-8-2a3.46,3.46,0,0,0-3.93,1.75l-3,5.81a3.43,3.43,0,0,0,.87,4.2m61.38-1.06a22.91,22.91,0,1,1-27.48,17.43,23,23,0,0,1,27.48-17.43" transform="translate(0 0)"/><path class="cls-3" d="M102.83,531.17l7.29,4.16a3.45,3.45,0,0,1,1.76,3.29c-.11,1.42-.17,2.83-.17,4.24a3.48,3.48,0,0,1-2,3.13l-7.58,3.58a3.5,3.5,0,0,0-1.93,3.94l1.49,6.51a3.54,3.54,0,0,0,3.46,2.73h8.42a3.53,3.53,0,0,1,3.19,2c.61,1.26,1.26,2.5,2,3.7a3.49,3.49,0,0,1-.15,3.74l-4.77,6.87a3.47,3.47,0,0,0,.32,4.37l4.57,4.9a3.56,3.56,0,0,0,4.37.66l7.27-4.17a3.58,3.58,0,0,1,3.77.14c1.15.79,2.35,1.54,3.58,2.24a3.47,3.47,0,0,1,1.76,3.31l-.66,8.31a3.51,3.51,0,0,0,2.48,3.63l6.43,2a3.56,3.56,0,0,0,4.12-1.6l4.2-7.22a3.51,3.51,0,0,1,3.32-1.74c1.43.12,2.85.17,4.27.17a3.52,3.52,0,0,1,3.16,2l3.62,7.52a3.56,3.56,0,0,0,4,1.92l6.56-1.47a3.52,3.52,0,0,0,2.76-3.43v-8.34a3.49,3.49,0,0,1,2-3.16c1.28-.6,2.54-1.26,3.77-2a3.53,3.53,0,0,1,3.75.16l6.94,4.73a3.57,3.57,0,0,0,4.41-.31l4.94-4.53a3.47,3.47,0,0,0,.66-4.33l-4.21-7.21a3.47,3.47,0,0,1,.14-3.73c.8-1.15,1.55-2.33,2.25-3.55a3.52,3.52,0,0,1,3.34-1.74l8.39.66a3.54,3.54,0,0,0,3.66-2.46l2-6.37a3.5,3.5,0,0,0-1.61-4.08l-7.29-4.16a3.5,3.5,0,0,1-1.77-3.3q.18-2.11.18-4.23a3.47,3.47,0,0,1,2-3.13l7.59-3.58a3.5,3.5,0,0,0,1.93-3.94l-1.49-6.51a3.54,3.54,0,0,0-3.46-2.73h-8.42a3.52,3.52,0,0,1-3.18-2c-.61-1.28-1.28-2.53-2-3.75a3.44,3.44,0,0,1,.16-3.71l4.77-6.87a3.47,3.47,0,0,0-.32-4.37l-4.57-4.91a3.57,3.57,0,0,0-4.37-.65l-7.27,4.16a3.54,3.54,0,0,1-3.77-.14c-1.16-.79-2.35-1.53-3.59-2.23a3.5,3.5,0,0,1-1.76-3.31l.67-8.31a3.51,3.51,0,0,0-2.48-3.63l-6.44-2a3.53,3.53,0,0,0-4.11,1.59l-4.2,7.23a3.53,3.53,0,0,1-3.32,1.74c-1.43-.12-2.85-.18-4.27-.18a3.52,3.52,0,0,1-3.17-2L156.53,482a3.56,3.56,0,0,0-4-1.92L146,481.52a3.52,3.52,0,0,0-2.75,3.43v8.34a3.49,3.49,0,0,1-2,3.16c-1.27.6-2.52,1.25-3.74,1.95a3.55,3.55,0,0,1-3.76-.15l-6.94-4.73a3.57,3.57,0,0,0-4.41.31l-4.94,4.53a3.47,3.47,0,0,0-.66,4.33L121,509.9a3.47,3.47,0,0,1-.14,3.73c-.8,1.14-1.55,2.33-2.25,3.55a3.53,3.53,0,0,1-3.34,1.74l-8.39-.66a3.54,3.54,0,0,0-3.66,2.45l-2,6.38a3.5,3.5,0,0,0,1.61,4.08m61.64-11.81a23.42,23.42,0,1,1-24.63,22.37,23.53,23.53,0,0,1,24.63-22.37" transform="translate(0 0)"/><path d="M173.55,606.55a4.51,4.51,0,0,1-4.08-2.56l-3.62-7.52a2.53,2.53,0,0,0-2.26-1.44h0c-1.43,0-2.89-.06-4.33-.18a2.55,2.55,0,0,0-2.38,1.26l-4.2,7.22a4.53,4.53,0,0,1-5.27,2l-6.43-2a4.49,4.49,0,0,1-3.18-4.67l.66-8.31a2.5,2.5,0,0,0-1.26-2.36c-1.26-.72-2.49-1.48-3.66-2.28a2.57,2.57,0,0,0-2.7-.1l-7.27,4.17A4.54,4.54,0,0,1,118,589l-4.57-4.91a4.44,4.44,0,0,1-.41-5.62l4.77-6.87a2.49,2.49,0,0,0,.11-2.66c-.72-1.23-1.4-2.5-2-3.78a2.55,2.55,0,0,0-2.29-1.42h-8.42a4.5,4.5,0,0,1-4.43-3.51l-1.49-6.51a4.47,4.47,0,0,1,2.47-5.07l7.59-3.57a2.51,2.51,0,0,0,1.44-2.23c0-1.43.06-2.88.18-4.32a2.47,2.47,0,0,0-1.27-2.34L102.33,532a4.47,4.47,0,0,1-2.07-5.24l2-6.37a4.5,4.5,0,0,1,4.69-3.16l8.38.66a2.54,2.54,0,0,0,2.4-1.24c.72-1.24,1.49-2.46,2.3-3.62a2.48,2.48,0,0,0,.09-2.66l-4.21-7.21a4.46,4.46,0,0,1,.85-5.57l4.94-4.53a4.55,4.55,0,0,1,5.65-.4l6.94,4.73a2.55,2.55,0,0,0,2.71.11c1.23-.71,2.51-1.37,3.81-2a2.51,2.51,0,0,0,1.43-2.26V485a4.48,4.48,0,0,1,3.54-4.4l6.56-1.47a4.53,4.53,0,0,1,5.1,2.45l3.62,7.52a2.51,2.51,0,0,0,2.26,1.43h0c1.44,0,2.9.06,4.34.18a2.53,2.53,0,0,0,2.38-1.25l4.2-7.22a4.52,4.52,0,0,1,5.27-2.05l6.43,2a4.49,4.49,0,0,1,3.18,4.67l-.66,8.31a2.49,2.49,0,0,0,1.26,2.36c1.26.71,2.49,1.48,3.65,2.28a2.59,2.59,0,0,0,2.71.1l7.27-4.17a4.54,4.54,0,0,1,5.6.84l4.57,4.9a4.46,4.46,0,0,1,.41,5.63l-4.77,6.87a2.47,2.47,0,0,0-.12,2.64c.73,1.24,1.41,2.52,2,3.81a2.52,2.52,0,0,0,2.28,1.41h8.42a4.5,4.5,0,0,1,4.43,3.51l1.49,6.51a4.45,4.45,0,0,1-2.48,5.06l-7.58,3.58a2.51,2.51,0,0,0-1.44,2.23c0,1.43-.06,2.88-.18,4.32a2.48,2.48,0,0,0,1.26,2.34l7.29,4.16a4.48,4.48,0,0,1,2.08,5.25l-2,6.37a4.51,4.51,0,0,1-4.69,3.16l-8.38-.67a2.56,2.56,0,0,0-2.4,1.25c-.72,1.24-1.49,2.46-2.3,3.62a2.5,2.5,0,0,0-.1,2.66l4.22,7.21a4.46,4.46,0,0,1-.85,5.57l-4.94,4.53a4.55,4.55,0,0,1-5.65.4l-6.94-4.73a2.56,2.56,0,0,0-2.69-.13c-1.25.72-2.54,1.4-3.85,2a2.48,2.48,0,0,0-1.41,2.25v8.34a4.49,4.49,0,0,1-3.54,4.4l-6.56,1.47a4.43,4.43,0,0,1-1,.11m-10-13.52a4.53,4.53,0,0,1,4.06,2.57l3.62,7.52a2.54,2.54,0,0,0,2.86,1.37l6.56-1.47a2.5,2.5,0,0,0,2-2.45v-8.34a4.49,4.49,0,0,1,2.56-4.06c1.26-.59,2.5-1.24,3.71-1.93a4.54,4.54,0,0,1,4.81.2l6.94,4.74a2.53,2.53,0,0,0,3.16-.23l4.95-4.53a2.47,2.47,0,0,0,.47-3.08l-4.21-7.21a4.48,4.48,0,0,1,.18-4.81c.77-1.12,1.52-2.29,2.2-3.48a4.58,4.58,0,0,1,4.29-2.24l8.39.66a2.53,2.53,0,0,0,2.63-1.75l2-6.38a2.49,2.49,0,0,0-1.16-2.91l-7.29-4.16a4.5,4.5,0,0,1-2.26-4.25c.11-1.38.17-2.78.17-4.15a4.5,4.5,0,0,1,2.59-4l7.58-3.57a2.48,2.48,0,0,0,1.38-2.82l-1.49-6.51a2.51,2.51,0,0,0-2.48-2h-8.42a4.56,4.56,0,0,1-4.09-2.54c-.59-1.25-1.25-2.48-1.94-3.67a4.47,4.47,0,0,1,.2-4.79l4.77-6.87a2.48,2.48,0,0,0-.23-3.12l-4.57-4.9a2.54,2.54,0,0,0-3.14-.47l-7.28,4.16a4.58,4.58,0,0,1-4.82-.18c-1.13-.77-2.31-1.5-3.52-2.19a4.51,4.51,0,0,1-2.26-4.26l.66-8.31a2.52,2.52,0,0,0-1.78-2.6l-6.43-2a2.55,2.55,0,0,0-3,1.15l-4.19,7.22a4.55,4.55,0,0,1-4.27,2.24c-1.39-.12-2.8-.18-4.18-.18h0a4.54,4.54,0,0,1-4.07-2.56l-3.61-7.52a2.54,2.54,0,0,0-2.86-1.37l-6.57,1.47a2.5,2.5,0,0,0-2,2.44v8.35a4.52,4.52,0,0,1-2.58,4.07c-1.24.58-2.48,1.23-3.67,1.91a4.6,4.6,0,0,1-4.83-.19l-6.94-4.74a2.55,2.55,0,0,0-3.17.23l-4.94,4.52a2.48,2.48,0,0,0-.47,3.09l4.21,7.21a4.5,4.5,0,0,1-.18,4.81c-.77,1.11-1.52,2.28-2.21,3.48a4.55,4.55,0,0,1-4.28,2.24l-8.39-.66a2.51,2.51,0,0,0-2.63,1.75l-2,6.38a2.48,2.48,0,0,0,1.16,2.91l7.29,4.16a4.52,4.52,0,0,1,2.26,4.25c-.11,1.38-.17,2.78-.17,4.15a4.5,4.5,0,0,1-2.59,4l-7.58,3.57a2.48,2.48,0,0,0-1.38,2.82l1.49,6.5a2.51,2.51,0,0,0,2.48,2h8.42a4.54,4.54,0,0,1,4.09,2.56c.59,1.23,1.24,2.45,1.93,3.63a4.48,4.48,0,0,1-.19,4.81l-4.77,6.87a2.48,2.48,0,0,0,.23,3.12l4.57,4.9a2.54,2.54,0,0,0,3.14.47l7.28-4.16a4.56,4.56,0,0,1,4.82.18c1.12.77,2.31,1.5,3.52,2.19a4.51,4.51,0,0,1,2.26,4.26l-.66,8.31a2.5,2.5,0,0,0,1.78,2.59l6.43,2a2.51,2.51,0,0,0,3-1.14l4.2-7.22a4.55,4.55,0,0,1,4.27-2.24c1.39.12,2.8.17,4.17.17h0m-.11-25.85-1.1,0a24.61,24.61,0,0,1-17.09-7.91,24.29,24.29,0,0,1,1.51-34.51,24.79,24.79,0,0,1,34.8,1.52,24.17,24.17,0,0,1,6.46,17.58,24.55,24.55,0,0,1-24.58,23.34m-.07-46.84a22.6,22.6,0,0,0-15.26,5.88,22.29,22.29,0,0,0-1.39,31.68,22.68,22.68,0,0,0,39.3-14.15,22.2,22.2,0,0,0-5.92-16.13,22.59,22.59,0,0,0-15.71-7.26c-.34,0-.68,0-1,0" transform="translate(0 0)"/><path d="M756.07,124.69a7.53,7.53,0,0,1-6.17-11.84,7.54,7.54,0,1,1,7.51,11.72,7.67,7.67,0,0,1-1.34.12m0-13.07a5.53,5.53,0,1,0,3.16,1,5.54,5.54,0,0,0-3.16-1m-5.37,1.8h0Z" transform="translate(0 0)"/><path d="M724.05,56.7a1,1,0,0,1-.76-.35,1,1,0,0,1,.12-1.41l4.84-4.13a1,1,0,0,1,1.3,1.52l-4.85,4.13a1,1,0,0,1-.65.24" transform="translate(0 0)"/><path d="M708.75,69.76a1,1,0,0,1-.77-.36A1,1,0,0,1,708.1,68l4.84-4.13a1,1,0,0,1,1.41.12,1,1,0,0,1-.11,1.41l-4.85,4.13a1,1,0,0,1-.64.24" transform="translate(0 0)"/><path d="M714.36,55.93a1,1,0,0,1-.76-.35l-4.13-4.84a1,1,0,1,1,1.52-1.3l4.13,4.84a1,1,0,0,1-.76,1.65" transform="translate(0 0)"/><path d="M727.41,71.24a1,1,0,0,1-.76-.35l-4.13-4.84a1,1,0,1,1,1.52-1.3l4.13,4.84a1,1,0,0,1-.76,1.65" transform="translate(0 0)"/><path d="M46.15,684.7a1,1,0,0,1-1-1l-.24-6.36a1,1,0,0,1,2-.07l.24,6.36a1,1,0,0,1-1,1h0" transform="translate(0 0)"/><path d="M46.91,704.8a1,1,0,0,1-1-1l-.24-6.36a1,1,0,1,1,2-.08l.24,6.36a1,1,0,0,1-1,1h0" transform="translate(0 0)"/><path d="M33.18,692.07a1,1,0,0,1,0-2l6.36-.24a1,1,0,0,1,.08,2l-6.37.24h0" transform="translate(0 0)"/><path d="M53.28,691.31a1,1,0,0,1,0-2l6.36-.24a1,1,0,0,1,.08,2l-6.36.24h0" transform="translate(0 0)"/></g></g></g></svg>